HIERARCHY
ROOT reference
{
  OFFSET -65.3212 -1.93545 -120.338
  CHANNELS 6 Xposition Yposition Zposition Zrotation Xrotation Yrotation
  JOINT Hips
  {
    OFFSET 0 78.7191 0
    CHANNELS 6 Xposition Yposition Zposition Zrotation Xrotation Yrotation
    JOINT Chest
    {
      OFFSET 0 8.7983 -4.7612
      CHANNELS 6 Xposition Yposition Zposition Zrotation Xrotation Yrotation
      JOINT Chest2
      {
        OFFSET 0 8.0291 0.4195
        CHANNELS 6 Xposition Yposition Zposition Zrotation Xrotation Yrotation
        JOINT Chest3
        {
          OFFSET 0 9.9351 -2.2114
          CHANNELS 6 Xposition Yposition Zposition Zrotation Xrotation Yrotation
          JOINT Neck
          {
            OFFSET 0 22.3885 -0.4656
            CHANNELS 6 Xposition Yposition Zposition Zrotation Xrotation Yrotation
            JOINT Head
            {
              OFFSET -0.0001 12.643 3.4389
              CHANNELS 6 Xposition Yposition Zposition Zrotation Xrotation Yrotation
              End Site
              {
                OFFSET 0.0001 17.6655 0.5274
              }
            }
          }
          JOINT LeftCollar
          {
            OFFSET 2.2603 21.606 7.4023
            CHANNELS 6 Xposition Yposition Zposition Zrotation Xrotation Yrotation
            JOINT LeftShoulder
            {
              OFFSET 13.5163 -1.1332 -5.0146
              CHANNELS 6 Xposition Yposition Zposition Zrotation Xrotation Yrotation
              JOINT LeftElbow
              {
                OFFSET -0.0995 -28.05 -0.2431
                CHANNELS 6 Xposition Yposition Zposition Zrotation Xrotation Yrotation
                JOINT LeftWrist
                {
                  OFFSET 0.0679 -23.3996 -0.1402
                  CHANNELS 6 Xposition Yposition Zposition Zrotation Xrotation Yrotation
                  JOINT LeftFinger1
                  {
                    OFFSET 0.7932 -9.069 2.5189
                    CHANNELS 6 Xposition Yposition Zposition Zrotation Xrotation Yrotation
                    JOINT LeftFinger11
                    {
                      OFFSET -0.8272 -3.3923 0.5977
                      CHANNELS 6 Xposition Yposition Zposition Zrotation Xrotation Yrotation
                      JOINT LeftFinger12
                      {
                        OFFSET -0.5649 -2.3158 0.4082
                        CHANNELS 6 Xposition Yposition Zposition Zrotation Xrotation Yrotation
                        End Site
                        {
                          OFFSET -0.4919 -1.6479 0.2673
                        }
                      }
                    }
                  }
                  JOINT LeftFinger2
                  {
                    OFFSET 0.9159 -9.2044 0.2193
                    CHANNELS 6 Xposition Yposition Zposition Zrotation Xrotation Yrotation
                    JOINT LeftFinger21
                    {
                      OFFSET 0.0117 -4.1944 -0.0248
                      CHANNELS 6 Xposition Yposition Zposition Zrotation Xrotation Yrotation
                      JOINT LeftFinger22
                      {
                        OFFSET 0.0071 -2.3249 -0.0142
                        CHANNELS 6 Xposition Yposition Zposition Zrotation Xrotation Yrotation
                        End Site
                        {
                          OFFSET -0.1475 -2.0882 0.0028
                        }
                      }
                    }
                  }
                  JOINT LeftFinger3
                  {
                    OFFSET 0.6113 -8.7231 -2.0637
                    CHANNELS 6 Xposition Yposition Zposition Zrotation Xrotation Yrotation
                    JOINT LeftFinger31
                    {
                      OFFSET -0.1927 -3.8059 -0.2383
                      CHANNELS 6 Xposition Yposition Zposition Zrotation Xrotation Yrotation
                      JOINT LeftFinger32
                      {
                        OFFSET -0.1091 -2.1688 -0.1362
                        CHANNELS 6 Xposition Yposition Zposition Zrotation Xrotation Yrotation
                        End Site
                        {
                          OFFSET -0.2358 -1.9176 -0.0906
                        }
                      }
                    }
                  }
                  JOINT LeftFinger4
                  {
                    OFFSET -0.6151 -8.0947 -3.5641
                    CHANNELS 6 Xposition Yposition Zposition Zrotation Xrotation Yrotation
                    JOINT LeftFinger41
                    {
                      OFFSET -0.4882 -2.341 -0.6462
                      CHANNELS 6 Xposition Yposition Zposition Zrotation Xrotation Yrotation
                      JOINT LeftFinger42
                      {
                        OFFSET -0.3575 -1.7167 -0.4742
                        CHANNELS 6 Xposition Yposition Zposition Zrotation Xrotation Yrotation
                        End Site
                        {
                          OFFSET -0.4187 -1.5237 -0.3496
                        }
                      }
                    }
                  }
                  JOINT LeftFinger0
                  {
                    OFFSET -1.42 -1.8761 1.4223
                    CHANNELS 6 Xposition Yposition Zposition Zrotation Xrotation Yrotation
                    JOINT LeftFinger01
                    {
                      OFFSET -1.1471 -3.4929 2.6334
                      CHANNELS 6 Xposition Yposition Zposition Zrotation Xrotation Yrotation
                      JOINT LeftFinger02
                      {
                        OFFSET -0.823 -2.3 1.6571
                        CHANNELS 6 Xposition Yposition Zposition Zrotation Xrotation Yrotation
                        End Site
                        {
                          OFFSET -0.5822 -1.6914 1.1582
                        }
                      }
                    }
                  }
                }
              }
            }
          }
          JOINT RightCollar
          {
            OFFSET -2.2603 21.606 7.4023
            CHANNELS 6 Xposition Yposition Zposition Zrotation Xrotation Yrotation
            JOINT RightShoulder
            {
              OFFSET -13.5187 -1.1334 -5.0155
              CHANNELS 6 Xposition Yposition Zposition Zrotation Xrotation Yrotation
              JOINT RightElbow
              {
                OFFSET 0.0994 -28.0499 -0.2431
                CHANNELS 6 Xposition Yposition Zposition Zrotation Xrotation Yrotation
                JOINT RightWrist
                {
                  OFFSET -0.0679 -23.3996 -0.1402
                  CHANNELS 6 Xposition Yposition Zposition Zrotation Xrotation Yrotation
                  JOINT RightFinger1
                  {
                    OFFSET -0.7932 -9.0691 2.5189
                    CHANNELS 6 Xposition Yposition Zposition Zrotation Xrotation Yrotation
                    JOINT RightFinger11
                    {
                      OFFSET 0.8272 -3.3923 0.5977
                      CHANNELS 6 Xposition Yposition Zposition Zrotation Xrotation Yrotation
                      JOINT RightFinger12
                      {
                        OFFSET 0.565 -2.3158 0.4082
                        CHANNELS 6 Xposition Yposition Zposition Zrotation Xrotation Yrotation
                        End Site
                        {
                          OFFSET 0.4919 -1.6479 0.2673
                        }
                      }
                    }
                  }
                  JOINT RightFinger2
                  {
                    OFFSET -0.916 -9.2044 0.2193
                    CHANNELS 6 Xposition Yposition Zposition Zrotation Xrotation Yrotation
                    JOINT RightFinger21
                    {
                      OFFSET -0.0117 -4.1944 -0.0248
                      CHANNELS 6 Xposition Yposition Zposition Zrotation Xrotation Yrotation
                      JOINT RightFinger22
                      {
                        OFFSET -0.0071 -2.3249 -0.0142
                        CHANNELS 6 Xposition Yposition Zposition Zrotation Xrotation Yrotation
                        End Site
                        {
                          OFFSET 0.1475 -2.0882 0.0028
                        }
                      }
                    }
                  }
                  JOINT RightFinger3
                  {
                    OFFSET -0.6113 -8.7231 -2.0637
                    CHANNELS 6 Xposition Yposition Zposition Zrotation Xrotation Yrotation
                    JOINT RightFinger31
                    {
                      OFFSET 0.1927 -3.8059 -0.2383
                      CHANNELS 6 Xposition Yposition Zposition Zrotation Xrotation Yrotation
                      JOINT RightFinger32
                      {
                        OFFSET 0.1091 -2.1688 -0.1362
                        CHANNELS 6 Xposition Yposition Zposition Zrotation Xrotation Yrotation
                        End Site
                        {
                          OFFSET 0.2358 -1.9176 -0.0906
                        }
                      }
                    }
                  }
                  JOINT RightFinger4
                  {
                    OFFSET 0.6151 -8.0947 -3.564
                    CHANNELS 6 Xposition Yposition Zposition Zrotation Xrotation Yrotation
                    JOINT RightFinger41
                    {
                      OFFSET 0.4882 -2.341 -0.6462
                      CHANNELS 6 Xposition Yposition Zposition Zrotation Xrotation Yrotation
                      JOINT RightFinger42
                      {
                        OFFSET 0.3574 -1.7166 -0.4742
                        CHANNELS 6 Xposition Yposition Zposition Zrotation Xrotation Yrotation
                        End Site
                        {
                          OFFSET 0.4187 -1.5237 -0.3496
                        }
                      }
                    }
                  }
                  JOINT RightFinger0
                  {
                    OFFSET 1.4199 -1.8761 1.4221
                    CHANNELS 6 Xposition Yposition Zposition Zrotation Xrotation Yrotation
                    JOINT RightFinger01
                    {
                      OFFSET 1.1472 -3.4929 2.6336
                      CHANNELS 6 Xposition Yposition Zposition Zrotation Xrotation Yrotation
                      JOINT RightFinger02
                      {
                        OFFSET 0.8229 -2.3 1.6571
                        CHANNELS 6 Xposition Yposition Zposition Zrotation Xrotation Yrotation
                        End Site
                        {
                          OFFSET 0.5822 -1.6914 1.1582
                        }
                      }
                    }
                  }
                }
              }
            }
          }
        }
      }
    }
    JOINT RightHip
    {
      OFFSET -9.412 3.9771 -0.7758
      CHANNELS 6 Xposition Yposition Zposition Zrotation Xrotation Yrotation
      JOINT RightKnee
      {
        OFFSET -0.7531 -40.938 0
        CHANNELS 6 Xposition Yposition Zposition Zrotation Xrotation Yrotation
        JOINT RightAnkle
        {
          OFFSET 0 -40.1986 0
          CHANNELS 6 Xposition Yposition Zposition Zrotation Xrotation Yrotation
          JOINT RightToe
          {
            OFFSET 0 -4.4182 9.239
            CHANNELS 6 Xposition Yposition Zposition Zrotation Xrotation Yrotation
            End Site
            {
              OFFSET 0 0 6.1981
            }
          }
        }
      }
    }
    JOINT LeftHip
    {
      OFFSET 9.4119 3.9773 -0.7758
      CHANNELS 6 Xposition Yposition Zposition Zrotation Xrotation Yrotation
      JOINT LeftKnee
      {
        OFFSET 0.7532 -40.9383 0
        CHANNELS 6 Xposition Yposition Zposition Zrotation Xrotation Yrotation
        JOINT LeftAnkle
        {
          OFFSET 0 -40.1986 0
          CHANNELS 6 Xposition Yposition Zposition Zrotation Xrotation Yrotation
          JOINT LeftToe
          {
            OFFSET 0 -4.4182 9.239
            CHANNELS 6 Xposition Yposition Zposition Zrotation Xrotation Yrotation
            End Site
            {
              OFFSET 0 0 6.1981
            }
          }
        }
      }
    }
  }
}
MOTION
Frames:	4
Frame Time:	0.0333333
-11.0475 -14.3158 -40.1032 0 0 -0 5.32907e-015 78.7191 0 29.8488 17.7688 -4.84282 3.55271e-015 8.7983 -4.7612 -5.42144 -1.5139 -4.4125 -2.66454e-015 8.0291 0.4195 -10.9476 -2.59987 -8.95184 3.55271e-015 9.9351 -2.2114 -10.9476 -2.59988 -8.95187 -7.10543e-015 22.3885 -0.4656 -1.43327 0.746135 49.0764 -0.0001 12.643 3.4389 -2.82727 11.286 23.8469 2.2603 21.606 7.4023 -5.3318 1.27155 1.58318 13.5163 -1.1332 -5.0146 21.9406 -24.0083 10.7971 -0.0995 -28.05 -0.2431 -51.717 -41.8325 -29.7738 0.0679 -23.3996 -0.1402 -3.06453 -39.1005 -2.0984 0.7932 -9.069 2.5189 9.22953 0.863586 -2.55735 -0.8272 -3.3923 0.5977 -12.739 7.91236 0.199473 -0.5649 -2.3158 0.4082 -14.8286 9.18269 0.399088 0.9159 -9.2044 0.2193 7.2121 -3.49238 1.10175 0.0117 -4.1944 -0.0248 -23.9443 14.8802 0.79178 0.0071 -2.3249 -0.0142 3.07874 -1.91299 0.35365 0.6113 -8.7231 -2.0637 2.99329 1.40943 4.09919 -0.1927 -3.8059 -0.2383 -5.12714 3.55816 -0.521744 -0.1091 -2.1688 -0.1362 -3.22774 2.23243 -0.365797 -0.6151 -8.0947 -3.5641 14.2448 0.0714672 7.68965 -0.4882 -2.341 -0.6462 -9.99493 6.89833 -1.06844 -0.3575 -1.7167 -0.4742 -2.62316 1.78061 -0.379902 -1.42 -1.8761 1.4223 -11.2788 -13.9066 -40.6511 -1.1471 -3.4929 2.6334 -4.81626 0.34302 0.296498 -0.823 -2.3 1.6571 -4.28022 -5.78185 0.979573 -2.2603 21.606 7.4023 -22.8376 -0.644121 17.0888 -13.5187 -1.1334 -5.0155 -47.2067 -56.1812 -14.6113 0.0994 -28.0499 -0.2431 -151.311 -76.7805 154.351 -0.0679 -23.3996 -0.1402 -0.3248 -35.5635 -28.8082 -0.7932 -9.0691 2.5189 -26.3169 9.86696 9.08479 0.8272 -3.3923 0.5977 39.4242 12.0337 -4.97739 0.565 -2.3158 0.4082 42.8113 12.8293 -5.7582 -0.916 -9.2044 0.2193 -2.2336 10.2522 5.03881 -0.0117 -4.1944 -0.0248 52.3753 15.6204 -6.40188 -0.0071 -2.3249 -0.0142 44.0892 13.716 -4.48618 -0.6113 -8.7231 -2.0637 15.0073 7.58686 -5.70553 0.1927 -3.8059 -0.2383 37.2883 13.8496 -2.53184 0.1091 -2.1688 -0.1362 38.5715 14.2636 -2.7736 0.6151 -8.0947 -3.564 23.0539 4.37536 -8.90255 0.4882 -2.341 -0.6462 30.7535 11.5468 -0.514331 0.3574 -1.7166 -0.4742 30.6848 11.5224 -0.505998 1.4199 -1.8761 1.4221 7.91147 0.880228 52.6244 1.1472 -3.4929 2.6336 -0.671225 1.52904 0.489188 0.8229 -2.3 1.6571 -5.92987 12.2687 4.56846 -9.412 3.9771 -0.7758 -68.4708 -66.7748 -33.5959 -0.7531 -40.938 -3.55271e-015 3.45161 43.1357 -2.01045 7.10543e-015 -40.1986 8.88179e-016 14.7293 13.8238 14.3273 -7.10543e-015 -4.4182 9.239 -1.557 -11.1498 0.48904 9.4119 3.9773 -0.7758 -40.9188 -55.0967 -14.168 0.7532 -40.9383 0 -1.53314 51.7992 -0.640482 1.77636e-015 -40.1986 0 0.773588 -13.5899 -6.88639 -1.77636e-015 -4.4182 9.239 0.766516 -5.71204 0.0381987 
-10.8128 -13.1778 -39.4174 0 0 -0 5.32907e-015 78.7191 0 30.3491 17.4245 -5.2453 0 8.7983 -4.7612 -5.46907 -1.5962 -4.2671 -1.77636e-015 8.0291 0.4195 -11.0467 -2.77417 -8.67085 0 9.9351 -2.2114 -11.0467 -2.77417 -8.67087 0 22.3885 -0.4656 -1.51209 0.113213 49.4216 -0.0001 12.643 3.4389 -2.52705 11.5266 23.7802 2.2603 21.606 7.4023 -5.60376 1.31561 2.14891 13.5163 -1.1332 -5.0146 21.8975 -23.8068 10.7236 -0.0995 -28.05 -0.2431 -52.3424 -40.8316 -30.3545 0.0679 -23.3996 -0.1402 -4.37452 -39.187 -2.46544 0.7932 -9.069 2.5189 8.9662 0.904426 -2.51747 -0.8272 -3.3923 0.5977 -12.7359 7.91048 0.199214 -0.5649 -2.3158 0.4082 -14.828 9.18237 0.39904 0.9159 -9.2044 0.2193 7.13793 -3.46751 1.05142 0.0117 -4.1944 -0.0248 -23.7258 14.7521 0.756533 0.0071 -2.3249 -0.0142 3.10754 -1.93077 0.357434 0.6113 -8.7231 -2.0637 3.04435 1.37425 4.03878 -0.1927 -3.8059 -0.2383 -5.09074 3.53274 -0.519182 -0.1091 -2.1688 -0.1362 -3.07439 2.12575 -0.351233 -0.6151 -8.0947 -3.5641 14.2656 0.121487 7.6358 -0.4882 -2.341 -0.6462 -9.64375 6.65319 -1.05128 -0.3575 -1.7167 -0.4742 -2.32643 1.57845 -0.342282 -1.42 -1.8761 1.4223 -11.2839 -13.7726 -40.2472 -1.1471 -3.4929 2.6334 -4.8293 0.346175 0.295655 -0.823 -2.3 1.6571 -4.07462 -5.49666 0.941482 -2.2603 21.606 7.4023 -21.9658 -0.679351 17.774 -13.5187 -1.1334 -5.0155 -45.7455 -54.4631 -13.639 0.0994 -28.0499 -0.2431 -162.334 -76.9244 144.321 -0.0679 -23.3996 -0.1402 -0.486432 -36.3108 -28.8682 -0.7932 -9.0691 2.5189 -26.3168 9.86696 9.08458 0.8272 -3.3923 0.5977 39.4242 12.0337 -4.9774 0.565 -2.3158 0.4082 42.7665 12.8191 -5.74754 -0.916 -9.2044 0.2193 -2.23355 10.2522 5.03864 -0.0117 -4.1944 -0.0248 52.3753 15.6204 -6.40187 -0.0071 -2.3249 -0.0142 44.0892 13.716 -4.48617 -0.6113 -8.7231 -2.0637 15.0073 7.58686 -5.70554 0.1927 -3.8059 -0.2383 37.2883 13.8496 -2.53178 0.1091 -2.1688 -0.1362 38.5715 14.2636 -2.77359 0.6151 -8.0947 -3.564 23.0539 4.37533 -8.90246 0.4882 -2.341 -0.6462 30.7535 11.5468 -0.514342 0.3574 -1.7166 -0.4742 30.6848 11.5224 -0.506154 1.4199 -1.8761 1.4221 7.91148 0.88024 52.6244 1.1472 -3.4929 2.6336 -0.671167 1.52911 0.489027 0.8229 -2.3 1.6571 -5.90862 12.2297 4.55124 -9.412 3.9771 -0.7758 -64.172 -65.2146 -27.7516 -0.7531 -40.938 0 2.73964 40.3216 -1.42295 -7.10543e-015 -40.1986 -5.55112e-016 15.3664 13.9846 13.0623 0 -4.4182 9.239 -1.59473 -11.4243 0.497327 9.4119 3.9773 -0.7758 -40.4637 -52.5788 -13.3525 0.7532 -40.9383 -5.32907e-015 -1.51131 48.4322 -0.685123 1.77636e-015 -40.1986 3.55271e-015 0.717696 -12.5978 -6.69281 0 -4.4182 9.239 0.720856 -5.37392 0.0338139 
-10.5699 -12.1378 -38.6944 0 0 -0 5.32907e-015 78.7191 0 30.9021 16.7886 -5.35441 -7.10543e-015 8.7983 -4.7612 -5.50876 -1.67168 -4.09388 -3.55271e-015 8.0291 0.4195 -11.1284 -2.93849 -8.33357 -1.77636e-015 9.9351 -2.2114 -11.1285 -2.9385 -8.33359 -7.10543e-015 22.3885 -0.4656 -1.45875 -0.0848092 49.6501 -0.0001 12.643 3.4389 -2.63756 11.7619 23.5773 2.2603 21.606 7.4023 -5.57714 1.35291 2.59918 13.5163 -1.1332 -5.0146 21.4617 -23.4527 10.3279 -0.0995 -28.05 -0.2431 -52.8418 -39.9103 -31.0191 0.0679 -23.3996 -0.1402 -5.43685 -39.2313 -2.44184 0.7932 -9.069 2.5189 8.70285 0.94513 -2.4774 -0.8272 -3.3923 0.5977 -12.7271 7.90506 0.198444 -0.5649 -2.3158 0.4082 -14.8275 9.18205 0.398964 0.9159 -9.2044 0.2193 7.06378 -3.44253 1.00119 0.0117 -4.1944 -0.0248 -23.4976 14.6179 0.720224 0.0071 -2.3249 -0.0142 3.14382 -1.95314 0.362235 0.6113 -8.7231 -2.0637 3.09538 1.3391 3.97846 -0.1927 -3.8059 -0.2383 -5.05435 3.50728 -0.516562 -0.1091 -2.1688 -0.1362 -2.92098 2.01911 -0.336422 -0.6151 -8.0947 -3.5641 14.2864 0.171512 7.58195 -0.4882 -2.341 -0.6462 -9.27485 6.39575 -1.03165 -0.3575 -1.7167 -0.4742 -2.02959 1.3765 -0.303654 -1.42 -1.8761 1.4223 -11.29 -13.6387 -39.8435 -1.1471 -3.4929 2.6334 -4.84234 0.349324 0.294802 -0.823 -2.3 1.6571 -3.87008 -5.21729 0.903138 -2.2603 21.606 7.4023 -21.4554 -0.722287 18.5107 -13.5187 -1.1334 -5.0155 -43.6483 -52.4653 -12.2911 0.0994 -28.0499 -0.2431 -171.165 -76.5867 136.092 -0.0679 -23.3996 -0.1402 0.00736236 -36.7897 -28.332 -0.7932 -9.0691 2.5189 -26.3168 9.86703 9.08462 0.8272 -3.3923 0.5977 39.4242 12.0337 -4.97736 0.565 -2.3158 0.4082 42.7216 12.8088 -5.73692 -0.916 -9.2044 0.2193 -2.23355 10.2523 5.03867 -0.0117 -4.1944 -0.0248 52.3753 15.6204 -6.40184 -0.0071 -2.3249 -0.0142 44.0892 13.7159 -4.48617 -0.6113 -8.7231 -2.0637 15.0073 7.5869 -5.70554 0.1927 -3.8059 -0.2383 37.2883 13.8496 -2.53175 0.1091 -2.1688 -0.1362 38.5715 14.2636 -2.77353 0.6151 -8.0947 -3.564 23.054 4.37537 -8.90261 0.4882 -2.341 -0.6462 30.7535 11.5467 -0.514278 0.3574 -1.7166 -0.4742 30.6848 11.5224 -0.506152 1.4199 -1.8761 1.4221 7.91148 0.880298 52.6245 1.1472 -3.4929 2.6336 -0.671151 1.52911 0.489027 0.8229 -2.3 1.6571 -5.88738 12.1906 4.53403 -9.412 3.9771 -0.7758 -60.8002 -63.3023 -23.0995 -0.7531 -40.938 3.55271e-015 2.18895 37.8953 -0.964703 -7.10543e-015 -40.1986 8.32668e-016 16.031 14.1875 12.257 -7.10543e-015 -4.4182 9.239 -1.58461 -11.3509 0.495127 9.4119 3.9773 -0.7758 -40.2701 -49.7069 -13.1313 0.7532 -40.9383 -1.77636e-015 -1.47364 44.9483 -0.735648 0 -40.1986 3.55271e-015 0.437315 -11.6229 -5.86663 1.77636e-015 -4.4182 9.239 0.7674 -5.71884 0.0383105 
-10.4033 -11.1612 -38.0065 0 0 -0 5.32907e-015 78.7191 0 31.129 16.2056 -5.23584 -3.55271e-015 8.7983 -4.7612 -5.49283 -1.68295 -3.98128 -5.32907e-015 8.0291 0.4195 -11.095 -2.97305 -8.10959 1.77636e-015 9.9351 -2.2114 -11.095 -2.97306 -8.10961 0 22.3885 -0.4656 -1.42812 -0.899918 49.93 -0.0001 12.643 3.4389 -2.48175 12.029 23.4182 2.2603 21.606 7.4023 -5.64642 1.37165 2.87294 13.5163 -1.1332 -5.0146 21.3741 -23.2511 10.1015 -0.0995 -28.05 -0.2431 -53.4056 -39.3269 -31.8168 0.0679 -23.3996 -0.1402 -6.09114 -39.1228 -1.9438 0.7932 -9.069 2.5189 8.43946 0.98562 -2.43716 -0.8272 -3.3923 0.5977 -12.7182 7.8996 0.197677 -0.5649 -2.3158 0.4082 -14.827 9.18172 0.39893 0.9159 -9.2044 0.2193 6.98968 -3.41756 0.950935 0.0117 -4.1944 -0.0248 -23.2695 14.4836 0.684498 0.0071 -2.3249 -0.0142 3.18014 -1.97547 0.367037 0.6113 -8.7231 -2.0637 3.1464 1.30386 3.91814 -0.1927 -3.8059 -0.2383 -5.01144 3.47729 -0.513493 -0.1091 -2.1688 -0.1362 -2.76756 1.91251 -0.321278 -0.6151 -8.0947 -3.5641 14.3073 0.221518 7.52808 -0.4882 -2.341 -0.6462 -8.90602 6.13843 -1.0104 -0.3575 -1.7167 -0.4742 -1.73265 1.17471 -0.263957 -1.42 -1.8761 1.4223 -11.2971 -13.5048 -39.44 -1.1471 -3.4929 2.6334 -4.8561 0.352618 0.29388 -0.823 -2.3 1.6571 -3.67111 -4.94577 0.864957 -2.2603 21.606 7.4023 -21.2321 -0.755435 19.0023 -13.5187 -1.1334 -5.0155 -41.3346 -50.8609 -10.8434 0.0994 -28.0499 -0.2431 -177.968 -76.2179 129.817 -0.0679 -23.3996 -0.1402 0.986013 -37.2953 -27.4324 -0.7932 -9.0691 2.5189 -26.3168 9.86698 9.08465 0.8272 -3.3923 0.5977 39.4242 12.0337 -4.97737 0.565 -2.3158 0.4082 42.6767 12.7986 -5.7263 -0.916 -9.2044 0.2193 -2.23353 10.2523 5.03866 -0.0117 -4.1944 -0.0248 52.3752 15.6204 -6.40179 -0.0071 -2.3249 -0.0142 44.0892 13.716 -4.48617 -0.6113 -8.7231 -2.0637 15.0073 7.58689 -5.70552 0.1927 -3.8059 -0.2383 37.2883 13.8496 -2.53167 0.1091 -2.1688 -0.1362 38.5715 14.2636 -2.77342 0.6151 -8.0947 -3.564 23.054 4.37541 -8.90261 0.4882 -2.341 -0.6462 30.7535 11.5467 -0.514219 0.3574 -1.7166 -0.4742 30.6848 11.5224 -0.506177 1.4199 -1.8761 1.4221 7.91149 0.880237 52.6243 1.1472 -3.4929 2.6336 -0.671169 1.5291 0.489024 0.8229 -2.3 1.6571 -5.86617 12.1515 4.51685 -9.412 3.9771 -0.7758 -57.9303 -61.0407 -19.6014 -0.7531 -40.938 -3.55271e-015 1.63642 35.2177 -0.514761 0 -40.1986 1.11022e-016 16.729 14.5332 11.2919 7.10543e-015 -4.4182 9.239 -1.6163 -11.5818 0.501991 9.4119 3.9773 -0.7758 -40.0305 -46.8283 -13.2627 0.7532 -40.9383 0 -1.37994 41.5021 -0.819197 -1.77636e-015 -40.1986 0 0.499273 -10.5332 -5.14929 0 -4.4182 9.239 0.743804 -5.54395 0.0359878 
